<svg width="770" height="367" viewBox="0 0 770 367" fill="none" xmlns="http://www.w3.org/2000/svg">
<g clip-path="url(#clip0_404_1145)">
<rect width="770" height="367" rx="60" fill="#0060F1"/>
<path d="M282.744 214.248C275.828 214.248 269.744 212.974 264.492 210.426C259.292 207.878 255.236 204.316 252.324 199.74C249.464 195.164 248.034 189.834 248.034 183.75C248.034 177.666 249.464 172.336 252.324 167.76C255.236 163.184 259.292 159.622 264.492 157.074C269.744 154.526 275.828 153.252 282.744 153.252C289.712 153.252 295.796 154.526 300.996 157.074C306.196 159.622 310.252 163.184 313.164 167.76C316.076 172.336 317.532 177.666 317.532 183.75C317.532 189.834 316.076 195.164 313.164 199.74C310.252 204.316 306.196 207.878 300.996 210.426C295.796 212.974 289.712 214.248 282.744 214.248ZM282.744 199.818C286.54 199.818 289.816 199.168 292.572 197.868C295.328 196.568 297.434 194.722 298.89 192.33C300.398 189.938 301.152 187.078 301.152 183.75C301.152 180.422 300.398 177.562 298.89 175.17C297.434 172.778 295.328 170.932 292.572 169.632C289.816 168.332 286.54 167.682 282.744 167.682C279 167.682 275.75 168.332 272.994 169.632C270.238 170.932 268.106 172.778 266.598 175.17C265.09 177.562 264.336 180.422 264.336 183.75C264.336 187.078 265.09 189.938 266.598 192.33C268.106 194.722 270.238 196.568 272.994 197.868C275.75 199.168 279 199.818 282.744 199.818ZM344.122 168.462H360.034V213H344.122V168.462ZM381.094 168.462H397.006V213H381.094V168.462ZM353.326 184.296H387.1V196.152H353.326V184.296ZM445.993 213L443.965 196.932L446.071 190.77L443.965 184.608L445.993 168.462H462.529L459.721 190.692L462.529 213H445.993ZM449.737 190.77C449.009 195.45 447.553 199.558 445.369 203.094C443.237 206.63 440.507 209.386 437.179 211.362C433.903 213.286 430.159 214.248 425.947 214.248C421.579 214.248 417.731 213.286 414.403 211.362C411.127 209.386 408.553 206.63 406.681 203.094C404.809 199.506 403.873 195.398 403.873 190.77C403.873 186.038 404.809 181.904 406.681 178.368C408.553 174.832 411.127 172.076 414.403 170.1C417.731 168.124 421.579 167.136 425.947 167.136C430.159 167.136 433.903 168.124 437.179 170.1C440.507 172.024 443.263 174.754 445.447 178.29C447.631 181.774 449.061 185.934 449.737 190.77ZM420.019 190.77C420.019 192.954 420.461 194.904 421.345 196.62C422.281 198.336 423.555 199.688 425.167 200.676C426.779 201.612 428.625 202.08 430.705 202.08C432.889 202.08 434.943 201.612 436.867 200.676C438.791 199.688 440.481 198.336 441.937 196.62C443.393 194.904 444.485 192.954 445.213 190.77C444.485 188.534 443.393 186.558 441.937 184.842C440.481 183.126 438.791 181.774 436.867 180.786C434.943 179.798 432.889 179.304 430.705 179.304C428.625 179.304 426.779 179.798 425.167 180.786C423.555 181.774 422.281 183.126 421.345 184.842C420.461 186.558 420.019 188.534 420.019 190.77ZM522.924 194.202C522.508 198.206 521.052 201.716 518.556 204.732C516.06 207.748 512.81 210.088 508.806 211.752C504.854 213.416 500.408 214.248 495.468 214.248C490.008 214.248 485.198 213.26 481.038 211.284C476.878 209.308 473.628 206.552 471.288 203.016C468.948 199.48 467.778 195.398 467.778 190.77C467.778 186.09 468.948 181.982 471.288 178.446C473.628 174.91 476.878 172.154 481.038 170.178C485.198 168.15 490.008 167.136 495.468 167.136C500.408 167.136 504.854 167.994 508.806 169.71C512.81 171.374 516.06 173.714 518.556 176.73C521.052 179.694 522.508 183.204 522.924 187.26H507.09C506.518 184.608 505.192 182.58 503.112 181.176C501.032 179.72 498.484 178.992 495.468 178.992C493.128 178.992 491.074 179.46 489.306 180.396C487.59 181.28 486.238 182.606 485.25 184.374C484.314 186.09 483.846 188.222 483.846 190.77C483.846 193.266 484.314 195.398 485.25 197.166C486.238 198.882 487.59 200.208 489.306 201.144C491.074 202.028 493.128 202.47 495.468 202.47C498.484 202.47 501.032 201.716 503.112 200.208C505.244 198.7 506.57 196.698 507.09 194.202H522.924Z" fill="white"/>
<path d="M0 254.922L119.984 12L168.992 159.609L218 307.217L197.721 344.33L165.612 400" stroke="white" stroke-width="7"/>
</g>
<defs>
<clipPath id="clip0_404_1145">
<rect width="770" height="367" fill="white"/>
</clipPath>
</defs>
</svg>
