<svg width="177" height="63" viewBox="0 0 177 63" fill="none" xmlns="http://www.w3.org/2000/svg">
<path d="M8.49465 38.4248H19.6767C22.0603 38.4248 23.9882 38.7754 25.4605 39.4764C26.9327 40.1541 28.0077 41.124 28.6854 42.3859C29.3865 43.6244 29.737 45.085 29.737 46.7675C29.737 48.4501 29.3397 49.9224 28.5452 51.1843C27.774 52.4228 26.6406 53.3809 25.145 54.0586C23.6494 54.7363 21.8266 55.0752 19.6767 55.0752H1.83451L3.83255 41.5796L1.83451 28.7852H27.8091V35.4103H7.40799L10.8432 31.3791L12.4206 41.4044L10.668 52.7617L7.23273 48.7305H18.3797C19.1275 48.7305 19.7117 48.5436 20.1324 48.1697C20.553 47.7724 20.7633 47.2232 20.7633 46.5222C20.7633 45.8211 20.553 45.2836 20.1324 44.9097C19.7117 44.5124 19.1275 44.3138 18.3797 44.3138H8.49465V38.4248ZM37.7694 50.6585V43.4725H55.6817V50.6585H37.7694ZM52.9125 28.7852L64.445 55.0752H54.8053L45.7265 32.7813H48.04L38.9612 55.0752H29.3215L40.8541 28.7852H52.9125ZM105.426 47.083L101.359 51.1492V28.7852H110.403V55.0752H66.4463V28.7852H75.4901V51.1492L71.4239 47.083H87.9691L83.9029 51.1492V28.7852H92.9467V51.1492L88.8805 47.083H105.426ZM114.61 28.7852H123.654V55.0752H114.61V28.7852ZM134.871 28.7852H143.915V55.0752H134.871V28.7852ZM119.728 37.6537H138.412V45.6458H119.728V37.6537ZM168.665 40.0373V46.3119H158.044L158.008 46.1015C155.905 46.1015 154.059 45.7627 152.47 45.085C150.904 44.3839 149.677 43.3907 148.789 42.1055C147.925 40.8202 147.492 39.3129 147.492 37.5836C147.492 35.8075 147.925 34.2652 148.789 32.9565C149.677 31.6479 150.904 30.6313 152.47 29.9069C154.059 29.1591 155.905 28.7852 158.008 28.7852H174.904V55.0752H165.86V31.0636L169.927 35.1298H159.411C158.523 35.1298 157.833 35.3402 157.342 35.7608C156.852 36.1814 156.606 36.789 156.606 37.5836C156.606 38.3781 156.852 38.9857 157.342 39.4063C157.833 39.827 158.523 40.0373 159.411 40.0373H168.665ZM165.3 42.7715L157.062 55.0752H146.721L155.309 42.7715H165.3Z" fill="white"/>
<path d="M127.959 18.3157V5.56978H130.235V18.3157H127.959ZM122.724 13.0808V10.8047H135.47V13.0808H122.724Z" fill="#F1F1F1"/>
<path d="M93.6094 11.2998V20.0684H84.7637V15.6836H75.918V20.0684H67.0723V11.2998H93.6094ZM102.455 11.2998H111.299V20.0684H102.453V11.2998H93.6094V2.53125H102.455V11.2998Z" fill="white"/>
<path d="M147.908 20.0987V5.56837H153.337V10.7941H158.615V5.56837H164.175V10.7941H169.329V5.56836H174.928V20.0987H147.908Z" fill="white"/>
</svg>
