<svg width="177" height="63" viewBox="0 0 177 63" fill="none" xmlns="http://www.w3.org/2000/svg">
<path d="M8.49465 38.4258H19.6767C22.0603 38.4258 23.9882 38.7764 25.4605 39.4774C26.9327 40.1551 28.0077 41.1249 28.6854 42.3869C29.3865 43.6254 29.737 45.086 29.737 46.7685C29.737 48.4511 29.3397 49.9233 28.5452 51.1852C27.774 52.4238 26.6406 53.3819 25.145 54.0596C23.6494 54.7373 21.8266 55.0762 19.6767 55.0762H1.83451L3.83255 41.5806L1.83451 28.7861H27.8091V35.4112H7.40799L10.8432 31.3801L12.4206 41.4054L10.668 52.7626L7.23273 48.7315H18.3797C19.1275 48.7315 19.7117 48.5446 20.1324 48.1707C20.553 47.7734 20.7633 47.2242 20.7633 46.5232C20.7633 45.8221 20.553 45.2846 20.1324 44.9107C19.7117 44.5134 19.1275 44.3148 18.3797 44.3148H8.49465V38.4258ZM37.7694 50.6594V43.4735H55.6817V50.6594H37.7694ZM52.9125 28.7861L64.445 55.0762H54.8053L45.7265 32.7822H48.04L38.9612 55.0762H29.3215L40.8541 28.7861H52.9125ZM105.426 47.084L101.359 51.1502V28.7861H110.403V55.0762H66.4463V28.7861H75.4901V51.1502L71.4239 47.084H87.9691L83.9029 51.1502V28.7861H92.9467V51.1502L88.8805 47.084H105.426ZM114.61 28.7861H123.654V55.0762H114.61V28.7861ZM134.871 28.7861H143.915V55.0762H134.871V28.7861ZM119.728 37.6546H138.412V45.6468H119.728V37.6546ZM168.665 40.0383V46.3128H158.044L158.008 46.1025C155.905 46.1025 154.059 45.7637 152.47 45.086C150.904 44.3849 149.677 43.3917 148.789 42.1064C147.925 40.8211 147.492 39.3138 147.492 37.5845C147.492 35.8085 147.925 34.2662 148.789 32.9575C149.677 31.6488 150.904 30.6323 152.47 29.9079C154.059 29.16 155.905 28.7861 158.008 28.7861H174.904V55.0762H165.86V31.0646L169.927 35.1308H159.411C158.523 35.1308 157.833 35.3411 157.342 35.7618C156.852 36.1824 156.606 36.79 156.606 37.5845C156.606 38.3791 156.852 38.9867 157.342 39.4073C157.833 39.828 158.523 40.0383 159.411 40.0383H168.665ZM165.3 42.7724L157.062 55.0762H146.721L155.309 42.7724H165.3Z" fill="black"/>
<path d="M127.959 18.3157V5.56978H130.235V18.3157H127.959ZM122.724 13.0808V10.8047H135.47V13.0808H122.724Z" fill="black"/>
<path d="M93.6094 11.2998V20.0684H84.7637V15.6836H75.918V20.0684H67.0723V11.2998H93.6094ZM102.455 11.2998H111.299V20.0684H102.453V11.2998H93.6094V2.53125H102.455V11.2998Z" fill="black"/>
<path d="M147.908 20.0987V5.56837H153.337V10.7941H158.615V5.56837H164.175V10.7941H169.329V5.56836H174.928V20.0987H147.908Z" fill="black"/>
</svg>
