<svg width="770" height="753" viewBox="0 0 770 753" fill="none" xmlns="http://www.w3.org/2000/svg">
<g clip-path="url(#clip0_404_1127)">
<rect width="770" height="753" rx="60" fill="#FF4392"/>
<path d="M121.459 406V347.5H137.527V393.13L133.237 389.776L166.387 347.5H183.469L136.045 406H121.459ZM149.383 378.076L161.239 368.248L184.249 406H165.919L149.383 378.076ZM210.871 407.248C205.151 407.248 200.159 406.286 195.895 404.362C191.631 402.386 188.303 399.63 185.911 396.094C183.519 392.506 182.323 388.398 182.323 383.77C182.323 379.038 183.519 374.904 185.911 371.368C188.303 367.832 191.631 365.076 195.895 363.1C200.159 361.124 205.151 360.136 210.871 360.136C216.539 360.136 221.505 361.124 225.769 363.1C230.085 365.076 233.439 367.832 235.831 371.368C238.223 374.904 239.419 379.038 239.419 383.77C239.419 388.398 238.223 392.506 235.831 396.094C233.439 399.63 230.085 402.386 225.769 404.362C221.505 406.286 216.539 407.248 210.871 407.248ZM210.871 395.47C213.471 395.47 215.681 395.002 217.501 394.066C219.373 393.13 220.803 391.778 221.791 390.01C222.779 388.242 223.273 386.162 223.273 383.77C223.273 381.274 222.779 379.168 221.791 377.452C220.803 375.684 219.373 374.332 217.501 373.396C215.681 372.46 213.471 371.992 210.871 371.992C208.271 371.992 206.035 372.46 204.163 373.396C202.291 374.332 200.861 375.684 199.873 377.452C198.885 379.168 198.391 381.248 198.391 383.692C198.391 386.136 198.885 388.242 199.873 390.01C200.861 391.778 202.291 393.13 204.163 394.066C206.035 395.002 208.271 395.47 210.871 395.47ZM244.73 406L247.538 383.692L244.73 361.462H281C285.316 361.462 288.748 362.476 291.296 364.504C293.844 366.48 295.118 369.184 295.118 372.616C295.118 375.84 293.818 378.466 291.218 380.494C288.67 382.47 285.134 383.692 280.61 384.16L281.624 381.586C286.876 381.794 290.88 382.912 293.636 384.94C296.444 386.968 297.848 389.776 297.848 393.364C297.848 397.212 296.418 400.28 293.558 402.568C290.698 404.856 286.85 406 282.014 406H244.73ZM260.096 402.646L253.934 396.094H276.71C278.426 396.094 279.7 395.73 280.532 395.002C281.416 394.222 281.858 393.156 281.858 391.804C281.858 390.556 281.39 389.542 280.454 388.762C279.57 387.93 278.14 387.514 276.164 387.514H257.054V379.246H274.292C275.904 379.246 277.126 378.882 277.958 378.154C278.79 377.426 279.206 376.464 279.206 375.268C279.206 374.072 278.816 373.11 278.036 372.382C277.308 371.654 276.164 371.29 274.604 371.29H254.012L260.096 364.816L262.67 383.692L260.096 402.646ZM330.842 407.248C325.122 407.248 320.13 406.286 315.866 404.362C311.602 402.386 308.274 399.63 305.882 396.094C303.49 392.506 302.294 388.398 302.294 383.77C302.294 379.038 303.49 374.904 305.882 371.368C308.274 367.832 311.602 365.076 315.866 363.1C320.13 361.124 325.122 360.136 330.842 360.136C336.51 360.136 341.476 361.124 345.74 363.1C350.056 365.076 353.41 367.832 355.802 371.368C358.194 374.904 359.39 379.038 359.39 383.77C359.39 388.398 358.194 392.506 355.802 396.094C353.41 399.63 350.056 402.386 345.74 404.362C341.476 406.286 336.51 407.248 330.842 407.248ZM330.842 395.47C333.442 395.47 335.652 395.002 337.472 394.066C339.344 393.13 340.774 391.778 341.762 390.01C342.75 388.242 343.244 386.162 343.244 383.77C343.244 381.274 342.75 379.168 341.762 377.452C340.774 375.684 339.344 374.332 337.472 373.396C335.652 372.46 333.442 371.992 330.842 371.992C328.242 371.992 326.006 372.46 324.134 373.396C322.262 374.332 320.832 375.684 319.844 377.452C318.856 379.168 318.362 381.248 318.362 383.692C318.362 386.136 318.856 388.242 319.844 390.01C320.832 391.778 322.262 393.13 324.134 394.066C326.006 395.002 328.242 395.47 330.842 395.47ZM366.097 361.462H382.087V374.254L381.385 376.126V388.606L382.087 392.272V418.87H366.097V361.462ZM377.017 383.77C377.693 378.934 379.097 374.774 381.229 371.29C383.413 367.754 386.169 365.024 389.497 363.1C392.825 361.124 396.595 360.136 400.807 360.136C405.175 360.136 408.997 361.124 412.273 363.1C415.601 365.076 418.175 367.832 419.995 371.368C421.867 374.904 422.803 379.038 422.803 383.77C422.803 388.398 421.867 392.506 419.995 396.094C418.175 399.63 415.601 402.386 412.273 404.362C408.997 406.286 405.175 407.248 400.807 407.248C396.595 407.248 392.825 406.286 389.497 404.362C386.169 402.386 383.439 399.63 381.307 396.094C379.175 392.558 377.745 388.45 377.017 383.77ZM406.735 383.77C406.735 381.534 406.267 379.558 405.331 377.842C404.447 376.126 403.173 374.774 401.509 373.786C399.897 372.798 398.051 372.304 395.971 372.304C393.839 372.304 391.811 372.798 389.887 373.786C387.963 374.774 386.273 376.126 384.817 377.842C383.361 379.558 382.243 381.534 381.463 383.77C382.243 385.954 383.361 387.904 384.817 389.62C386.273 391.336 387.963 392.688 389.887 393.676C391.811 394.612 393.839 395.08 395.971 395.08C398.051 395.08 399.897 394.612 401.509 393.676C403.173 392.688 404.447 391.336 405.331 389.62C406.267 387.904 406.735 385.954 406.735 383.77ZM429.701 406V361.462H445.691V393.598L441.011 391.96L465.815 361.462H482.663L443.897 406H429.701ZM465.971 406L453.257 384.238L465.269 375.814L483.911 406H465.971ZM487.592 406V361.462H503.348V397.342L499.916 396.25L523.238 361.462H543.674V406H527.996V369.106L531.428 370.276L507.482 406H487.592ZM552.49 361.462H568.402V406H552.49V361.462ZM589.462 361.462H605.374V406H589.462V361.462ZM561.694 377.296H595.468V389.152H561.694V377.296ZM652.957 361.462V373.474H622.771L630.103 366.142V406H614.113V361.462H652.957Z" fill="white"/>
<path d="M-61.7441 465.013L0.00114167 520.705L72.6427 724.101L242.14 472.277L291.778 644.195L524.231 478.33L397.108 484.384L667.092 669.62L473.382 715.626L363.209 802.796" stroke="white" stroke-width="7"/>
</g>
<defs>
<clipPath id="clip0_404_1127">
<rect width="770" height="753" fill="white"/>
</clipPath>
</defs>
</svg>
