<svg width="112" height="27" viewBox="0 0 112 27" fill="none" xmlns="http://www.w3.org/2000/svg">
<g clip-path="url(#clip0_49_935)">
<path d="M10.0985 6.76935C9.04069 6.29578 7.97641 6.26176 7.10165 6.6736C6.22689 7.08544 5.58382 7.92328 5.29091 9.03276C5.02761 10.03 5.09841 11.0973 5.4803 11.8878C5.66581 12.2717 5.92804 12.5073 6.25971 12.5879C6.58708 12.6674 6.92896 12.5855 7.27565 12.4223C7.64457 12.2486 8.01898 11.9828 8.38683 11.7216C8.70827 11.4934 9.01189 11.2779 9.26794 11.1573C9.48893 11.0533 9.82765 10.9627 10.1862 10.8669C11.0241 10.6429 11.9739 10.389 12.2818 9.74404C12.4282 9.43744 12.4097 9.09004 12.2268 8.71151C11.8449 7.92107 11.0493 7.19502 10.0985 6.76935Z" fill="#FF962C"/>
<path d="M8.09086 2.43854C7.67289 2.20122 7.22106 2.165 6.85121 2.33913C6.48133 2.51327 6.2255 2.88268 6.14925 3.35265C6.07922 3.7844 6.16032 4.2699 6.37764 4.71972C6.59497 5.16953 6.9261 5.53732 7.31007 5.75532C7.72803 5.99261 8.17987 6.02886 8.54973 5.85473C8.9196 5.68059 9.17543 5.31118 9.25168 4.84121C9.32171 4.40946 9.24061 3.92396 9.02329 3.47414C8.80596 3.02432 8.47483 2.65652 8.09086 2.43854Z" fill="#FF962C"/>
<path d="M5.08683 3.85309C4.66886 3.61577 4.21705 3.57954 3.84718 3.75368C3.4773 3.92782 3.22145 4.29724 3.14522 4.7672C3.07519 5.19895 3.15629 5.68445 3.37361 6.13427C3.59094 6.58408 3.92207 6.95187 4.30604 7.16987C4.72401 7.40718 5.17583 7.44344 5.54571 7.2693C5.91558 7.09516 6.17141 6.72575 6.24765 6.25576C6.31768 5.82401 6.23659 5.33853 6.01926 4.88869C5.80192 4.43888 5.47078 4.07108 5.08683 3.85309Z" fill="#FF962C"/>
<path d="M11.9116 4.02672C11.6531 3.74468 11.3241 3.6062 10.9853 3.63679C10.7126 3.66141 10.4579 3.79894 10.2679 4.02406C10.0062 4.33427 9.88404 4.77786 9.93287 5.24106C9.97278 5.61957 10.1235 5.96853 10.3574 6.22369C10.616 6.50572 10.945 6.64421 11.2838 6.61361C11.4011 6.60302 11.515 6.57156 11.6219 6.52124C11.7636 6.45453 11.8929 6.35465 12.0012 6.22633C12.2629 5.91612 12.3851 5.47253 12.3362 5.00935L12.3362 5.00933C12.2963 4.63084 12.1455 4.28186 11.9116 4.02672Z" fill="#FF962C"/>
<path d="M4.19177 7.94375C3.85785 7.61477 3.43178 7.42929 3.02286 7.43484C2.72608 7.43887 2.45747 7.54776 2.2665 7.74139C2.02917 7.98207 1.93112 8.32161 1.99042 8.69742C2.04407 9.03744 2.22389 9.37274 2.49674 9.64157L2.49675 9.64158C2.83069 9.97055 3.25674 10.156 3.66566 10.1505C3.83484 10.1482 3.99485 10.1118 4.13654 10.0451C4.24343 9.99481 4.3399 9.9272 4.42202 9.84394C4.65939 9.60324 4.75742 9.26371 4.69812 8.8879C4.64444 8.54792 4.46461 8.21262 4.19177 7.94375Z" fill="#FF962C"/>
</g>
<g clip-path="url(#clip1_49_935)">
<path d="M101.692 18.4245C102.822 18.1591 103.873 18.3265 104.652 18.8957C105.431 19.465 105.9 20.4087 105.973 21.5529C106.038 22.5815 105.762 23.6158 105.234 24.3196C104.978 24.6615 104.675 24.8433 104.334 24.8598C103.997 24.8762 103.677 24.7313 103.369 24.5057C103.04 24.2656 102.724 23.9341 102.414 23.6084C102.142 23.3237 101.886 23.0549 101.658 22.8883C101.461 22.7444 101.146 22.5917 100.813 22.43C100.034 22.0521 99.1506 21.6237 98.9732 20.9325C98.8889 20.604 98.9743 20.2665 99.2271 19.9294C99.7549 19.2256 100.676 18.663 101.692 18.4245Z" fill="#FF962C"/>
<path d="M104.501 14.5523C104.957 14.3982 105.408 14.4478 105.737 14.6885C106.066 14.9292 106.246 15.3401 106.23 15.8158C106.215 16.2528 106.041 16.714 105.741 17.1145C105.441 17.5151 105.044 17.8136 104.625 17.9552C104.169 18.1093 103.719 18.0596 103.389 17.819C103.06 17.5783 102.88 17.1674 102.896 16.6917C102.911 16.2547 103.085 15.7935 103.385 15.3929C103.686 14.9924 104.082 14.6938 104.501 14.5523Z" fill="#FF962C"/>
<path d="M107.176 16.5073C107.632 16.3532 108.083 16.4029 108.412 16.6436C108.741 16.8843 108.921 17.2951 108.905 17.7708C108.89 18.2078 108.716 18.6691 108.416 19.0696C108.116 19.4702 107.719 19.7687 107.3 19.9103C106.844 20.0644 106.394 20.0148 106.064 19.7741C105.735 19.5334 105.555 19.1225 105.571 18.6468C105.586 18.2098 105.76 17.7486 106.06 17.348C106.361 16.9475 106.757 16.6489 107.176 16.5073Z" fill="#FF962C"/>
<path d="M100.443 15.3905C100.751 15.1624 101.101 15.0885 101.428 15.1825C101.691 15.2581 101.914 15.4411 102.057 15.6979C102.254 16.0518 102.288 16.5102 102.15 16.9557C102.038 17.3197 101.822 17.6338 101.543 17.8401C101.235 18.0682 100.885 18.1421 100.559 18.0481C100.445 18.0156 100.34 17.9633 100.245 17.8937C100.118 17.8015 100.011 17.6791 99.9293 17.5327C99.7325 17.1788 99.6984 16.7204 99.836 16.2749L99.836 16.2749C99.9485 15.9109 100.164 15.5968 100.443 15.3905Z" fill="#FF962C"/>
<path d="M107.263 20.6915C107.654 20.4316 108.108 20.3299 108.509 20.4124C108.799 20.4724 109.042 20.6299 109.192 20.856C109.378 21.137 109.408 21.4888 109.278 21.8465C109.159 22.1701 108.918 22.4653 108.598 22.6777L108.598 22.6777C108.206 22.9377 107.752 23.0394 107.352 22.9568C107.186 22.9226 107.036 22.8568 106.91 22.7646C106.815 22.695 106.733 22.6105 106.669 22.5132C106.482 22.2322 106.452 21.8804 106.583 21.5227C106.701 21.1991 106.943 20.9039 107.263 20.6915Z" fill="#FF962C"/>
</g>
<path d="M14.9224 9.65786H16.1142V18H14.9224V9.65786ZM10.1317 18H8.93992V9.65786H10.1317V18ZM15.0297 14.2818H10.0125V13.245H15.0297V14.2818ZM22.3651 18V16.6653L22.3055 16.415V14.1388C22.3055 13.6541 22.1625 13.2807 21.8765 13.0186C21.5984 12.7484 21.1773 12.6134 20.6132 12.6134C20.2398 12.6134 19.8744 12.6769 19.5168 12.804C19.1593 12.9232 18.8574 13.0861 18.6111 13.2927L18.1344 12.4346C18.4602 12.1724 18.8495 11.9738 19.3023 11.8387C19.7631 11.6957 20.2438 11.6242 20.7443 11.6242C21.6103 11.6242 22.2777 11.8348 22.7464 12.2558C23.2152 12.6769 23.4496 13.3205 23.4496 14.1865V18H22.3651ZM20.2915 18.0715C19.8227 18.0715 19.4096 17.9921 19.0521 17.8332C18.7025 17.6743 18.4324 17.4558 18.2417 17.1777C18.051 16.8917 17.9557 16.5699 17.9557 16.2124C17.9557 15.8708 18.0351 15.5609 18.194 15.2828C18.3609 15.0048 18.627 14.7823 18.9925 14.6155C19.3659 14.4486 19.8664 14.3652 20.4941 14.3652H22.4962V15.1875H20.5417C19.9697 15.1875 19.5844 15.2828 19.3857 15.4735C19.1871 15.6642 19.0878 15.8946 19.0878 16.1647C19.0878 16.4746 19.211 16.7248 19.4572 16.9155C19.7035 17.0983 20.0452 17.1896 20.4821 17.1896C20.9112 17.1896 21.2846 17.0943 21.6024 16.9036C21.9281 16.7129 22.1625 16.4349 22.3055 16.0694L22.5319 16.8559C22.381 17.2293 22.1148 17.5273 21.7335 17.7497C21.3521 17.9642 20.8714 18.0715 20.2915 18.0715ZM26.4963 16.4746L26.5201 15.0087L30.1549 11.6838H31.5373L28.7487 14.4248L28.129 14.9492L26.4963 16.4746ZM25.5667 18V9.15734H26.7108V18H25.5667ZM30.3933 18L27.9145 14.9253L28.6533 14.0077L31.7995 18H30.3933ZM35.4515 18.0715C34.9113 18.0715 34.4346 17.9722 34.0214 17.7736C33.6163 17.5749 33.2985 17.273 33.0681 16.8679C32.8456 16.4547 32.7344 15.9383 32.7344 15.3186V11.6838H33.8784V15.1875C33.8784 15.8072 34.0254 16.272 34.3194 16.5818C34.6213 16.8917 35.0424 17.0466 35.5826 17.0466C35.9799 17.0466 36.3255 16.9672 36.6194 16.8083C36.9134 16.6414 37.1398 16.4031 37.2987 16.0932C37.4576 15.7754 37.5371 15.3941 37.5371 14.9492V11.6838H38.6811V18H37.5966V16.2958L37.7754 16.7487C37.5688 17.1698 37.259 17.4955 36.8459 17.7259C36.4327 17.9563 35.9679 18.0715 35.4515 18.0715ZM44.2317 11.6242C44.7481 11.6242 45.201 11.7235 45.5903 11.9222C45.9875 12.1208 46.2974 12.4227 46.5198 12.8279C46.7423 13.2331 46.8535 13.7455 46.8535 14.3652V18H45.7095V14.4963C45.7095 13.8845 45.5585 13.4237 45.2566 13.1139C44.9626 12.804 44.5455 12.6491 44.0053 12.6491C43.6001 12.6491 43.2465 12.7286 42.9446 12.8875C42.6427 13.0464 42.4084 13.2807 42.2415 13.5906C42.0826 13.9004 42.0032 14.2858 42.0032 14.7466V18H40.8591V11.6838H41.9555V13.388L41.7767 12.9351C41.9833 12.522 42.3011 12.2002 42.7301 11.9698C43.1592 11.7394 43.6597 11.6242 44.2317 11.6242ZM52.8916 18V16.6653L52.832 16.415V14.1388C52.832 13.6541 52.689 13.2807 52.403 13.0186C52.1249 12.7484 51.7039 12.6134 51.1398 12.6134C50.7664 12.6134 50.4009 12.6769 50.0434 12.804C49.6859 12.9232 49.3839 13.0861 49.1377 13.2927L48.661 12.4346C48.9867 12.1724 49.376 11.9738 49.8289 11.8387C50.2897 11.6957 50.7703 11.6242 51.2709 11.6242C52.1369 11.6242 52.8042 11.8348 53.273 12.2558C53.7417 12.6769 53.9761 13.3205 53.9761 14.1865V18H52.8916ZM50.818 18.0715C50.3492 18.0715 49.9361 17.9921 49.5786 17.8332C49.229 17.6743 48.9589 17.4558 48.7682 17.1777C48.5775 16.8917 48.4822 16.5699 48.4822 16.2124C48.4822 15.8708 48.5616 15.5609 48.7205 15.2828C48.8874 15.0048 49.1535 14.7823 49.519 14.6155C49.8924 14.4486 50.3929 14.3652 51.0206 14.3652H53.0227V15.1875H51.0683C50.4962 15.1875 50.1109 15.2828 49.9123 15.4735C49.7137 15.6642 49.6143 15.8946 49.6143 16.1647C49.6143 16.4746 49.7375 16.7248 49.9838 16.9155C50.2301 17.0983 50.5717 17.1896 51.0087 17.1896C51.4377 17.1896 51.8111 17.0943 52.1289 16.9036C52.4546 16.7129 52.689 16.4349 52.832 16.0694L53.0585 16.8559C52.9075 17.2293 52.6414 17.5273 52.26 17.7497C51.8786 17.9642 51.398 18.0715 50.818 18.0715ZM59.4606 18V9.65786H60.4378L64.1798 15.9621H63.6555L67.3499 9.65786H68.3271L68.339 18H67.1949L67.183 11.4574H67.4571L64.1679 16.987H63.6197L60.3067 11.4574H60.6046V18H59.4606ZM74.5965 18V16.6653L74.5369 16.415V14.1388C74.5369 13.6541 74.3939 13.2807 74.1079 13.0186C73.8298 12.7484 73.4088 12.6134 72.8447 12.6134C72.4713 12.6134 72.1058 12.6769 71.7483 12.804C71.3908 12.9232 71.0889 13.0861 70.8426 13.2927L70.3659 12.4346C70.6916 12.1724 71.0809 11.9738 71.5338 11.8387C71.9946 11.6957 72.4752 11.6242 72.9758 11.6242C73.8418 11.6242 74.5091 11.8348 74.9779 12.2558C75.4466 12.6769 75.681 13.3205 75.681 14.1865V18H74.5965ZM72.5229 18.0715C72.0542 18.0715 71.641 17.9921 71.2835 17.8332C70.9339 17.6743 70.6638 17.4558 70.4731 17.1777C70.2825 16.8917 70.1871 16.5699 70.1871 16.2124C70.1871 15.8708 70.2666 15.5609 70.4255 15.2828C70.5923 15.0048 70.8585 14.7823 71.2239 14.6155C71.5973 14.4486 72.0979 14.3652 72.7255 14.3652H74.7276V15.1875H72.7732C72.2011 15.1875 71.8158 15.2828 71.6172 15.4735C71.4186 15.6642 71.3193 15.8946 71.3193 16.1647C71.3193 16.4746 71.4424 16.7248 71.6887 16.9155C71.935 17.0983 72.2766 17.1896 72.7136 17.1896C73.1426 17.1896 73.516 17.0943 73.8338 16.9036C74.1596 16.7129 74.3939 16.4349 74.5369 16.0694L74.7634 16.8559C74.6124 17.2293 74.3463 17.5273 73.9649 17.7497C73.5836 17.9642 73.1029 18.0715 72.5229 18.0715ZM79.9672 18.0715C79.3316 18.0715 78.839 17.9007 78.4894 17.5591C78.1398 17.2174 77.965 16.7288 77.965 16.0932V10.3014H79.1091V16.0456C79.1091 16.3872 79.1925 16.6494 79.3594 16.8321C79.5342 17.0148 79.7805 17.1062 80.0982 17.1062C80.4558 17.1062 80.7537 17.0069 80.992 16.8083L81.3496 17.6306C81.1748 17.7815 80.9642 17.8927 80.7179 17.9642C80.4796 18.0358 80.2293 18.0715 79.9672 18.0715ZM76.8925 12.6253V11.6838H80.9205V12.6253H76.8925ZM86.6535 18V16.6653L86.5939 16.415V14.1388C86.5939 13.6541 86.4509 13.2807 86.1649 13.0186C85.8868 12.7484 85.4658 12.6134 84.9017 12.6134C84.5283 12.6134 84.1628 12.6769 83.8053 12.804C83.4478 12.9232 83.1459 13.0861 82.8996 13.2927L82.4229 12.4346C82.7486 12.1724 83.1379 11.9738 83.5908 11.8387C84.0516 11.6957 84.5322 11.6242 85.0328 11.6242C85.8988 11.6242 86.5661 11.8348 87.0349 12.2558C87.5036 12.6769 87.738 13.3205 87.738 14.1865V18H86.6535ZM84.5799 18.0715C84.1112 18.0715 83.698 17.9921 83.3405 17.8332C82.9909 17.6743 82.7208 17.4558 82.5301 17.1777C82.3394 16.8917 82.2441 16.5699 82.2441 16.2124C82.2441 15.8708 82.3236 15.5609 82.4825 15.2828C82.6493 15.0048 82.9154 14.7823 83.2809 14.6155C83.6543 14.4486 84.1549 14.3652 84.7825 14.3652H86.7846V15.1875H84.8302C84.2581 15.1875 83.8728 15.2828 83.6742 15.4735C83.4756 15.6642 83.3763 15.8946 83.3763 16.1647C83.3763 16.4746 83.4994 16.7248 83.7457 16.9155C83.992 17.0983 84.3336 17.1896 84.7706 17.1896C85.1996 17.1896 85.573 17.0943 85.8908 16.9036C86.2166 16.7129 86.4509 16.4349 86.5939 16.0694L86.8204 16.8559C86.6694 17.2293 86.4033 17.5273 86.0219 17.7497C85.6405 17.9642 85.1599 18.0715 84.5799 18.0715ZM92.0241 18.0715C91.3886 18.0715 90.896 17.9007 90.5464 17.5591C90.1968 17.2174 90.022 16.7288 90.022 16.0932V10.3014H91.1661V16.0456C91.1661 16.3872 91.2495 16.6494 91.4164 16.8321C91.5912 17.0148 91.8374 17.1062 92.1552 17.1062C92.5128 17.1062 92.8107 17.0069 93.049 16.8083L93.4066 17.6306C93.2318 17.7815 93.0212 17.8927 92.7749 17.9642C92.5366 18.0358 92.2863 18.0715 92.0241 18.0715ZM88.9495 12.6253V11.6838H92.9775V12.6253H88.9495ZM98.7105 18V16.6653L98.6509 16.415V14.1388C98.6509 13.6541 98.5079 13.2807 98.2219 13.0186C97.9438 12.7484 97.5228 12.6134 96.9587 12.6134C96.5853 12.6134 96.2198 12.6769 95.8623 12.804C95.5047 12.9232 95.2028 13.0861 94.9566 13.2927L94.4799 12.4346C94.8056 12.1724 95.1949 11.9738 95.6478 11.8387C96.1086 11.6957 96.5892 11.6242 97.0898 11.6242C97.9557 11.6242 98.6231 11.8348 99.0919 12.2558C99.5606 12.6769 99.795 13.3205 99.795 14.1865V18H98.7105ZM96.6369 18.0715C96.1681 18.0715 95.755 17.9921 95.3975 17.8332C95.0479 17.6743 94.7778 17.4558 94.5871 17.1777C94.3964 16.8917 94.3011 16.5699 94.3011 16.2124C94.3011 15.8708 94.3805 15.5609 94.5394 15.2828C94.7063 15.0048 94.9724 14.7823 95.3379 14.6155C95.7113 14.4486 96.2118 14.3652 96.8395 14.3652H98.8416V15.1875H96.8872C96.3151 15.1875 95.9298 15.2828 95.7312 15.4735C95.5326 15.6642 95.4332 15.8946 95.4332 16.1647C95.4332 16.4746 95.5564 16.7248 95.8027 16.9155C96.049 17.0983 96.3906 17.1896 96.8276 17.1896C97.2566 17.1896 97.63 17.0943 97.9478 16.9036C98.2735 16.7129 98.5079 16.4349 98.6509 16.0694L98.8774 16.8559C98.7264 17.2293 98.4602 17.5273 98.0789 17.7497C97.6975 17.9642 97.2169 18.0715 96.6369 18.0715Z" fill="black"/>
<defs>
<clipPath id="clip0_49_935">
<rect width="11.0949" height="10.8215" fill="white" transform="matrix(0.904744 -0.425955 0.435026 0.900418 0 4.72607)"/>
</clipPath>
<clipPath id="clip1_49_935">
<rect width="11.0708" height="10.8453" fill="white" transform="matrix(-0.807379 -0.590034 -0.599975 0.800019 112 18.3237)"/>
</clipPath>
</defs>
</svg>
