<svg width="770" height="366" viewBox="0 0 770 366" fill="none" xmlns="http://www.w3.org/2000/svg">
<g clip-path="url(#clip0_404_1141)">
<rect width="770" height="366" rx="60" fill="#00ABAF"/>
<path d="M175.884 154H192.03V212.5H175.884V154ZM221.904 154H238.128V212.5H221.904V154ZM184.932 175.606H228.612V189.958H184.932V175.606ZM273.751 213.748C268.031 213.748 263.039 212.786 258.775 210.862C254.511 208.886 251.183 206.13 248.791 202.594C246.399 199.006 245.203 194.898 245.203 190.27C245.203 185.538 246.399 181.404 248.791 177.868C251.183 174.332 254.511 171.576 258.775 169.6C263.039 167.624 268.031 166.636 273.751 166.636C279.419 166.636 284.385 167.624 288.649 169.6C292.965 171.576 296.319 174.332 298.711 177.868C301.103 181.404 302.299 185.538 302.299 190.27C302.299 194.898 301.103 199.006 298.711 202.594C296.319 206.13 292.965 208.886 288.649 210.862C284.385 212.786 279.419 213.748 273.751 213.748ZM273.751 201.97C276.351 201.97 278.561 201.502 280.381 200.566C282.253 199.63 283.683 198.278 284.671 196.51C285.659 194.742 286.153 192.662 286.153 190.27C286.153 187.774 285.659 185.668 284.671 183.952C283.683 182.184 282.253 180.832 280.381 179.896C278.561 178.96 276.351 178.492 273.751 178.492C271.151 178.492 268.915 178.96 267.043 179.896C265.171 180.832 263.741 182.184 262.753 183.952C261.765 185.668 261.271 187.748 261.271 190.192C261.271 192.636 261.765 194.742 262.753 196.51C263.741 198.278 265.171 199.63 267.043 200.566C268.915 201.502 271.151 201.97 273.751 201.97ZM307.61 212.5L310.418 190.192L307.61 167.962H343.88C348.196 167.962 351.628 168.976 354.176 171.004C356.724 172.98 357.998 175.684 357.998 179.116C357.998 182.34 356.698 184.966 354.098 186.994C351.55 188.97 348.014 190.192 343.49 190.66L344.504 188.086C349.756 188.294 353.76 189.412 356.516 191.44C359.324 193.468 360.728 196.276 360.728 199.864C360.728 203.712 359.298 206.78 356.438 209.068C353.578 211.356 349.73 212.5 344.894 212.5H307.61ZM322.976 209.146L316.814 202.594H339.59C341.306 202.594 342.58 202.23 343.412 201.502C344.296 200.722 344.738 199.656 344.738 198.304C344.738 197.056 344.27 196.042 343.334 195.262C342.45 194.43 341.02 194.014 339.044 194.014H319.934V185.746H337.172C338.784 185.746 340.006 185.382 340.838 184.654C341.67 183.926 342.086 182.964 342.086 181.768C342.086 180.572 341.696 179.61 340.916 178.882C340.188 178.154 339.044 177.79 337.484 177.79H316.892L322.976 171.316L325.55 190.192L322.976 209.146ZM393.722 213.748C388.002 213.748 383.01 212.786 378.746 210.862C374.482 208.886 371.154 206.13 368.762 202.594C366.37 199.006 365.174 194.898 365.174 190.27C365.174 185.538 366.37 181.404 368.762 177.868C371.154 174.332 374.482 171.576 378.746 169.6C383.01 167.624 388.002 166.636 393.722 166.636C399.39 166.636 404.356 167.624 408.62 169.6C412.936 171.576 416.29 174.332 418.682 177.868C421.074 181.404 422.27 185.538 422.27 190.27C422.27 194.898 421.074 199.006 418.682 202.594C416.29 206.13 412.936 208.886 408.62 210.862C404.356 212.786 399.39 213.748 393.722 213.748ZM393.722 201.97C396.322 201.97 398.532 201.502 400.352 200.566C402.224 199.63 403.654 198.278 404.642 196.51C405.63 194.742 406.124 192.662 406.124 190.27C406.124 187.774 405.63 185.668 404.642 183.952C403.654 182.184 402.224 180.832 400.352 179.896C398.532 178.96 396.322 178.492 393.722 178.492C391.122 178.492 388.886 178.96 387.014 179.896C385.142 180.832 383.712 182.184 382.724 183.952C381.736 185.668 381.242 187.748 381.242 190.192C381.242 192.636 381.736 194.742 382.724 196.51C383.712 198.278 385.142 199.63 387.014 200.566C388.886 201.502 391.122 201.97 393.722 201.97ZM482.095 193.702C481.679 197.706 480.223 201.216 477.727 204.232C475.231 207.248 471.981 209.588 467.977 211.252C464.025 212.916 459.579 213.748 454.639 213.748C449.179 213.748 444.369 212.76 440.209 210.784C436.049 208.808 432.799 206.052 430.459 202.516C428.119 198.98 426.949 194.898 426.949 190.27C426.949 185.59 428.119 181.482 430.459 177.946C432.799 174.41 436.049 171.654 440.209 169.678C444.369 167.65 449.179 166.636 454.639 166.636C459.579 166.636 464.025 167.494 467.977 169.21C471.981 170.874 475.231 173.214 477.727 176.23C480.223 179.194 481.679 182.704 482.095 186.76H466.261C465.689 184.108 464.363 182.08 462.283 180.676C460.203 179.22 457.655 178.492 454.639 178.492C452.299 178.492 450.245 178.96 448.477 179.896C446.761 180.78 445.409 182.106 444.421 183.874C443.485 185.59 443.017 187.722 443.017 190.27C443.017 192.766 443.485 194.898 444.421 196.666C445.409 198.382 446.761 199.708 448.477 200.644C450.245 201.528 452.299 201.97 454.639 201.97C457.655 201.97 460.203 201.216 462.283 199.708C464.415 198.2 465.741 196.198 466.261 193.702H482.095ZM500.67 173.422H516.66V212.5H500.67V173.422ZM483.744 167.962H533.586V179.974H483.744V167.962ZM539.046 212.5V167.962H554.802V203.842L551.37 202.75L574.692 167.962H595.128V212.5H579.45V175.606L582.882 176.776L558.936 212.5H539.046Z" fill="white"/>
<path d="M201.317 -51L186.39 -23.28L162.756 18.3L62 201L304.561 52.32L698.878 153.12L814.561 95.16L878 153.12" stroke="white" stroke-width="7"/>
</g>
<defs>
<clipPath id="clip0_404_1141">
<rect width="770" height="366" fill="white"/>
</clipPath>
</defs>
</svg>
