<svg width="41" height="41" viewBox="0 0 41 41" fill="none" xmlns="http://www.w3.org/2000/svg">
<g clip-path="url(#clip0_6_196)">
<path d="M10.6813 23.3026C13.4398 19.972 16.9266 18.1377 20.4995 18.1377C24.0724 18.1377 27.5593 19.972 30.3176 23.3026C32.7971 26.2963 34.2773 30.0693 34.2773 33.3952C34.2773 35.0109 33.7834 36.2415 32.8094 37.0531C31.8479 37.8542 30.5786 38.1252 29.1625 38.1251C27.6557 38.1251 25.9825 37.8183 24.3386 37.5167C22.9021 37.2531 21.5452 37.0043 20.4994 37.0043C19.5968 37.0043 18.3241 37.2405 16.9769 37.4906C13.8285 38.0751 10.2599 38.7376 8.19846 37.0236C7.21846 36.2088 6.72158 34.988 6.72158 33.3952C6.7215 30.0693 8.20174 26.2963 10.6813 23.3026Z" fill="#FF962C"/>
<path d="M10.3998 5.21697C11.4091 3.72888 12.8544 2.87549 14.365 2.87549C15.8758 2.87549 17.321 3.72896 18.3303 5.21697C19.2574 6.58399 19.7681 8.37918 19.7681 10.2719C19.7681 12.1646 19.2575 13.9598 18.3303 15.3268C17.321 16.8148 15.8757 17.6683 14.365 17.6683C12.8543 17.6683 11.4091 16.8148 10.3998 15.3268C9.47266 13.9598 8.96201 12.1646 8.96201 10.2719C8.96201 8.37918 9.47258 6.58391 10.3998 5.21697Z" fill="#FF962C"/>
<path d="M22.6693 5.21697C23.6786 3.72888 25.1238 2.87549 26.6346 2.87549C28.1453 2.87549 29.5906 3.72896 30.5998 5.21697C31.5269 6.58399 32.0376 8.37918 32.0376 10.2719C32.0376 12.1646 31.527 13.9598 30.5998 15.3268C29.5905 16.8149 28.1453 17.6684 26.6346 17.6684C25.1238 17.6684 23.6786 16.8149 22.6693 15.3268C21.7422 13.9598 21.2315 12.1647 21.2315 10.2719C21.2316 8.37918 21.7422 6.58391 22.6693 5.21697Z" fill="#FF962C"/>
<path d="M0.238398 16.8277C0.645274 15.4437 1.51741 14.438 2.69399 13.996C3.64084 13.6404 4.70964 13.7007 5.70357 14.1659C7.07331 14.8068 8.19288 16.1303 8.77505 17.797C9.25079 19.159 9.31013 20.5985 8.94201 21.8507C8.53514 23.2348 7.663 24.2405 6.48634 24.6824C6.07914 24.8354 5.64952 24.9114 5.21293 24.9114C4.63421 24.9114 4.04323 24.7777 3.47668 24.5126C2.10694 23.8717 0.987369 22.5481 0.405202 20.8815L0.405202 20.8815C-0.0704627 19.5196 -0.129801 18.0799 0.238398 16.8277Z" fill="#FF962C"/>
<path d="M32.2245 17.7959C32.8068 16.1292 33.9264 14.8058 35.296 14.1648C36.29 13.6997 37.3589 13.6395 38.3057 13.995C39.4823 14.437 40.3545 15.4427 40.7613 16.8267C41.1295 18.0789 41.0701 19.5186 40.5944 20.8804L40.5944 20.8805C40.0121 22.5472 38.8926 23.8706 37.5229 24.5116C36.9563 24.7767 36.3654 24.9104 35.7867 24.9104C35.3501 24.9104 34.9204 24.8343 34.5133 24.6814C33.3364 24.2394 32.4644 23.2337 32.0575 21.8497C31.6895 20.5976 31.7489 19.158 32.2245 17.7959Z" fill="#FF962C"/>
</g>
<defs>
<clipPath id="clip0_6_196">
<rect width="41" height="41" fill="white" transform="matrix(-1 8.74228e-08 8.74228e-08 1 41 0)"/>
</clipPath>
</defs>
</svg>
