<svg width="770" height="765" viewBox="0 0 770 765" fill="none" xmlns="http://www.w3.org/2000/svg">
<g clip-path="url(#clip0_404_1123)">
<rect width="770" height="765" rx="60" fill="#028487"/>
<path d="M206.581 352.268V339.242H246.907V352.268H206.581ZM237.703 305L264.301 363.5H247.063L224.755 311.864H229.435L207.049 363.5H189.811L216.409 305H237.703ZM268.75 318.962H284.74V331.754L284.038 333.626V346.106L284.74 349.772V376.37H268.75V318.962ZM279.67 341.27C280.346 336.434 281.75 332.274 283.882 328.79C286.066 325.254 288.822 322.524 292.15 320.6C295.478 318.624 299.248 317.636 303.46 317.636C307.828 317.636 311.65 318.624 314.926 320.6C318.254 322.576 320.828 325.332 322.648 328.868C324.52 332.404 325.456 336.538 325.456 341.27C325.456 345.898 324.52 350.006 322.648 353.594C320.828 357.13 318.254 359.886 314.926 361.862C311.65 363.786 307.828 364.748 303.46 364.748C299.248 364.748 295.478 363.786 292.15 361.862C288.822 359.886 286.092 357.13 283.96 353.594C281.828 350.058 280.398 345.95 279.67 341.27ZM309.388 341.27C309.388 339.034 308.92 337.058 307.984 335.342C307.1 333.626 305.826 332.274 304.162 331.286C302.55 330.298 300.704 329.804 298.624 329.804C296.492 329.804 294.464 330.298 292.54 331.286C290.616 332.274 288.926 333.626 287.47 335.342C286.014 337.058 284.896 339.034 284.116 341.27C284.896 343.454 286.014 345.404 287.47 347.12C288.926 348.836 290.616 350.188 292.54 351.176C294.464 352.112 296.492 352.58 298.624 352.58C300.704 352.58 302.55 352.112 304.162 351.176C305.826 350.188 307.1 348.836 307.984 347.12C308.92 345.404 309.388 343.454 309.388 341.27ZM358.483 364.748C353.075 364.748 348.239 363.76 343.975 361.784C339.763 359.808 336.435 357.052 333.991 353.516C331.547 349.928 330.325 345.768 330.325 341.036C330.325 336.408 331.495 332.352 333.835 328.868C336.175 325.332 339.373 322.576 343.429 320.6C347.537 318.624 352.165 317.636 357.313 317.636C362.669 317.636 367.219 318.806 370.963 321.146C374.759 323.434 377.671 326.684 379.699 330.896C381.779 335.108 382.819 340.074 382.819 345.794H343.195V336.2H373.849L368.623 339.554C368.415 337.266 367.843 335.342 366.907 333.782C365.971 332.17 364.723 330.948 363.163 330.116C361.655 329.284 359.835 328.868 357.703 328.868C355.363 328.868 353.361 329.336 351.697 330.272C350.033 331.208 348.733 332.508 347.797 334.172C346.861 335.784 346.393 337.682 346.393 339.866C346.393 342.674 347.017 345.066 348.265 347.042C349.565 348.966 351.437 350.448 353.881 351.488C356.377 352.528 359.419 353.048 363.007 353.048C366.283 353.048 369.533 352.632 372.757 351.8C376.033 350.916 378.997 349.694 381.649 348.134V358.274C378.581 360.354 375.071 361.966 371.119 363.11C367.219 364.202 363.007 364.748 358.483 364.748ZM389.635 318.962H405.547V363.5H389.635V318.962ZM426.607 318.962H442.519V363.5H426.607V318.962ZM398.839 334.796H432.613V346.652H398.839V334.796ZM514.672 351.644V374.186H500.944V363.5H462.022V374.186H448.294V351.644H461.71L464.674 351.878H496.966L499.696 351.644H514.672ZM457.576 318.962H506.56V360.458H490.726V323.252L497.98 330.506H465.376L471.304 324.734C472.032 326.866 472.474 328.894 472.63 330.818C472.786 332.69 472.864 334.406 472.864 335.966C472.864 343.142 471.642 348.732 469.198 352.736C466.754 356.688 463.322 358.664 458.902 358.664L452.428 353.204C456.484 350.396 458.512 343.584 458.512 332.768C458.512 330.688 458.434 328.478 458.278 326.138C458.122 323.798 457.888 321.406 457.576 318.962ZM560.441 363.5L558.413 347.432L560.519 341.27L558.413 335.108L560.441 318.962H576.977L574.169 341.192L576.977 363.5H560.441ZM564.185 341.27C563.457 345.95 562.001 350.058 559.817 353.594C557.685 357.13 554.955 359.886 551.627 361.862C548.351 363.786 544.607 364.748 540.395 364.748C536.027 364.748 532.179 363.786 528.851 361.862C525.575 359.886 523.001 357.13 521.129 353.594C519.257 350.006 518.321 345.898 518.321 341.27C518.321 336.538 519.257 332.404 521.129 328.868C523.001 325.332 525.575 322.576 528.851 320.6C532.179 318.624 536.027 317.636 540.395 317.636C544.607 317.636 548.351 318.624 551.627 320.6C554.955 322.524 557.711 325.254 559.895 328.79C562.079 332.274 563.509 336.434 564.185 341.27ZM534.467 341.27C534.467 343.454 534.909 345.404 535.793 347.12C536.729 348.836 538.003 350.188 539.615 351.176C541.227 352.112 543.073 352.58 545.153 352.58C547.337 352.58 549.391 352.112 551.315 351.176C553.239 350.188 554.929 348.836 556.385 347.12C557.841 345.404 558.933 343.454 559.661 341.27C558.933 339.034 557.841 337.058 556.385 335.342C554.929 333.626 553.239 332.274 551.315 331.286C549.391 330.298 547.337 329.804 545.153 329.804C543.073 329.804 541.227 330.298 539.615 331.286C538.003 332.274 536.729 333.626 535.793 335.342C534.909 337.058 534.467 339.034 534.467 341.27ZM114.363 415.962V460.5H98.3729V420.564L105.705 427.818H70.4489L77.7809 420.564V460.5H61.7909V415.962H114.363ZM123.109 415.962H139.099V428.754L138.397 430.626V443.106L139.099 446.772V473.37H123.109V415.962ZM134.029 438.27C134.705 433.434 136.109 429.274 138.241 425.79C140.425 422.254 143.181 419.524 146.509 417.6C149.837 415.624 153.607 414.636 157.819 414.636C162.187 414.636 166.009 415.624 169.285 417.6C172.613 419.576 175.187 422.332 177.007 425.868C178.879 429.404 179.815 433.538 179.815 438.27C179.815 442.898 178.879 447.006 177.007 450.594C175.187 454.13 172.613 456.886 169.285 458.862C166.009 460.786 162.187 461.748 157.819 461.748C153.607 461.748 149.837 460.786 146.509 458.862C143.181 456.886 140.451 454.13 138.319 450.594C136.187 447.058 134.757 442.95 134.029 438.27ZM163.747 438.27C163.747 436.034 163.279 434.058 162.343 432.342C161.459 430.626 160.185 429.274 158.521 428.286C156.909 427.298 155.063 426.804 152.983 426.804C150.851 426.804 148.823 427.298 146.899 428.286C144.975 429.274 143.285 430.626 141.829 432.342C140.373 434.058 139.255 436.034 138.475 438.27C139.255 440.454 140.373 442.404 141.829 444.12C143.285 445.836 144.975 447.188 146.899 448.176C148.823 449.112 150.851 449.58 152.983 449.58C155.063 449.58 156.909 449.112 158.521 448.176C160.185 447.188 161.459 445.836 162.343 444.12C163.279 442.404 163.747 440.454 163.747 438.27ZM213.233 461.748C207.513 461.748 202.521 460.786 198.257 458.862C193.993 456.886 190.665 454.13 188.273 450.594C185.881 447.006 184.685 442.898 184.685 438.27C184.685 433.538 185.881 429.404 188.273 425.868C190.665 422.332 193.993 419.576 198.257 417.6C202.521 415.624 207.513 414.636 213.233 414.636C218.901 414.636 223.867 415.624 228.131 417.6C232.447 419.576 235.801 422.332 238.193 425.868C240.585 429.404 241.781 433.538 241.781 438.27C241.781 442.898 240.585 447.006 238.193 450.594C235.801 454.13 232.447 456.886 228.131 458.862C223.867 460.786 218.901 461.748 213.233 461.748ZM213.233 449.97C215.833 449.97 218.043 449.502 219.863 448.566C221.735 447.63 223.165 446.278 224.153 444.51C225.141 442.742 225.635 440.662 225.635 438.27C225.635 435.774 225.141 433.668 224.153 431.952C223.165 430.184 221.735 428.832 219.863 427.896C218.043 426.96 215.833 426.492 213.233 426.492C210.633 426.492 208.397 426.96 206.525 427.896C204.653 428.832 203.223 430.184 202.235 431.952C201.247 433.668 200.753 435.748 200.753 438.192C200.753 440.636 201.247 442.742 202.235 444.51C203.223 446.278 204.653 447.63 206.525 448.566C208.397 449.502 210.633 449.97 213.233 449.97ZM301.606 441.702C301.19 445.706 299.734 449.216 297.238 452.232C294.742 455.248 291.492 457.588 287.488 459.252C283.536 460.916 279.09 461.748 274.15 461.748C268.69 461.748 263.88 460.76 259.72 458.784C255.56 456.808 252.31 454.052 249.97 450.516C247.63 446.98 246.46 442.898 246.46 438.27C246.46 433.59 247.63 429.482 249.97 425.946C252.31 422.41 255.56 419.654 259.72 417.678C263.88 415.65 268.69 414.636 274.15 414.636C279.09 414.636 283.536 415.494 287.488 417.21C291.492 418.874 294.742 421.214 297.238 424.23C299.734 427.194 301.19 430.704 301.606 434.76H285.772C285.2 432.108 283.874 430.08 281.794 428.676C279.714 427.22 277.166 426.492 274.15 426.492C271.81 426.492 269.756 426.96 267.988 427.896C266.272 428.78 264.92 430.106 263.932 431.874C262.996 433.59 262.528 435.722 262.528 438.27C262.528 440.766 262.996 442.898 263.932 444.666C264.92 446.382 266.272 447.708 267.988 448.644C269.756 449.528 271.81 449.97 274.15 449.97C277.166 449.97 279.714 449.216 281.794 447.708C283.926 446.2 285.252 444.198 285.772 441.702H301.606ZM320.181 421.422H336.171V460.5H320.181V421.422ZM303.255 415.962H353.097V427.974H303.255V415.962ZM358.556 415.962H374.546V428.754L373.844 430.626V443.106L374.546 446.772V473.37H358.556V415.962ZM369.476 438.27C370.152 433.434 371.556 429.274 373.688 425.79C375.872 422.254 378.628 419.524 381.956 417.6C385.284 415.624 389.054 414.636 393.266 414.636C397.634 414.636 401.456 415.624 404.732 417.6C408.06 419.576 410.634 422.332 412.454 425.868C414.326 429.404 415.262 433.538 415.262 438.27C415.262 442.898 414.326 447.006 412.454 450.594C410.634 454.13 408.06 456.886 404.732 458.862C401.456 460.786 397.634 461.748 393.266 461.748C389.054 461.748 385.284 460.786 381.956 458.862C378.628 456.886 375.898 454.13 373.766 450.594C371.634 447.058 370.204 442.95 369.476 438.27ZM399.194 438.27C399.194 436.034 398.726 434.058 397.79 432.342C396.906 430.626 395.632 429.274 393.968 428.286C392.356 427.298 390.51 426.804 388.43 426.804C386.298 426.804 384.27 427.298 382.346 428.286C380.422 429.274 378.732 430.626 377.276 432.342C375.82 434.058 374.702 436.034 373.922 438.27C374.702 440.454 375.82 442.404 377.276 444.12C378.732 445.836 380.422 447.188 382.346 448.176C384.27 449.112 386.298 449.58 388.43 449.58C390.51 449.58 392.356 449.112 393.968 448.176C395.632 447.188 396.906 445.836 397.79 444.12C398.726 442.404 399.194 440.454 399.194 438.27ZM462.408 460.5L460.38 444.432L462.486 438.27L460.38 432.108L462.408 415.962H478.944L476.136 438.192L478.944 460.5H462.408ZM466.152 438.27C465.424 442.95 463.968 447.058 461.784 450.594C459.652 454.13 456.922 456.886 453.594 458.862C450.318 460.786 446.574 461.748 442.362 461.748C437.994 461.748 434.146 460.786 430.818 458.862C427.542 456.886 424.968 454.13 423.096 450.594C421.224 447.006 420.288 442.898 420.288 438.27C420.288 433.538 421.224 429.404 423.096 425.868C424.968 422.332 427.542 419.576 430.818 417.6C434.146 415.624 437.994 414.636 442.362 414.636C446.574 414.636 450.318 415.624 453.594 417.6C456.922 419.524 459.678 422.254 461.862 425.79C464.046 429.274 465.476 433.434 466.152 438.27ZM436.434 438.27C436.434 440.454 436.876 442.404 437.76 444.12C438.696 445.836 439.97 447.188 441.582 448.176C443.194 449.112 445.04 449.58 447.12 449.58C449.304 449.58 451.358 449.112 453.282 448.176C455.206 447.188 456.896 445.836 458.352 444.12C459.808 442.404 460.9 440.454 461.628 438.27C460.9 436.034 459.808 434.058 458.352 432.342C456.896 430.626 455.206 429.274 453.282 428.286C451.358 427.298 449.304 426.804 447.12 426.804C445.04 426.804 443.194 427.298 441.582 428.286C439.97 429.274 438.696 430.626 437.76 432.342C436.876 434.058 436.434 436.034 436.434 438.27ZM486.601 415.962H502.513V460.5H486.601V415.962ZM523.573 415.962H539.485V460.5H523.573V415.962ZM495.805 431.796H529.579V443.652H495.805V431.796ZM601.342 441.702C600.926 445.706 599.47 449.216 596.974 452.232C594.478 455.248 591.228 457.588 587.224 459.252C583.272 460.916 578.826 461.748 573.886 461.748C568.426 461.748 563.616 460.76 559.456 458.784C555.296 456.808 552.046 454.052 549.706 450.516C547.366 446.98 546.196 442.898 546.196 438.27C546.196 433.59 547.366 429.482 549.706 425.946C552.046 422.41 555.296 419.654 559.456 417.678C563.616 415.65 568.426 414.636 573.886 414.636C578.826 414.636 583.272 415.494 587.224 417.21C591.228 418.874 594.478 421.214 596.974 424.23C599.47 427.194 600.926 430.704 601.342 434.76H585.508C584.936 432.108 583.61 430.08 581.53 428.676C579.45 427.22 576.902 426.492 573.886 426.492C571.546 426.492 569.492 426.96 567.724 427.896C566.008 428.78 564.656 430.106 563.668 431.874C562.732 433.59 562.264 435.722 562.264 438.27C562.264 440.766 562.732 442.898 563.668 444.666C564.656 446.382 566.008 447.708 567.724 448.644C569.492 449.528 571.546 449.97 573.886 449.97C576.902 449.97 579.45 449.216 581.53 447.708C583.662 446.2 584.988 444.198 585.508 441.702H601.342ZM619.917 421.422H635.907V460.5H619.917V421.422ZM602.991 415.962H652.833V427.974H602.991V415.962ZM657.201 460.5L660.009 438.192L657.201 415.962H693.471C697.787 415.962 701.219 416.976 703.767 419.004C706.315 420.98 707.589 423.684 707.589 427.116C707.589 430.34 706.289 432.966 703.689 434.994C701.141 436.97 697.605 438.192 693.081 438.66L694.095 436.086C699.347 436.294 703.351 437.412 706.107 439.44C708.915 441.468 710.319 444.276 710.319 447.864C710.319 451.712 708.889 454.78 706.029 457.068C703.169 459.356 699.321 460.5 694.485 460.5H657.201ZM672.567 457.146L666.405 450.594H689.181C690.897 450.594 692.171 450.23 693.003 449.502C693.887 448.722 694.329 447.656 694.329 446.304C694.329 445.056 693.861 444.042 692.925 443.262C692.041 442.43 690.611 442.014 688.635 442.014H669.525V433.746H686.763C688.375 433.746 689.597 433.382 690.429 432.654C691.261 431.926 691.677 430.964 691.677 429.768C691.677 428.572 691.287 427.61 690.507 426.882C689.779 426.154 688.635 425.79 687.075 425.79H666.483L672.567 419.316L675.141 438.192L672.567 457.146Z" fill="white"/>
<path d="M427.083 -13L284.498 100.813L45 148.142L326.828 230.403L502.832 134.619L579.694 289L781 152.5" stroke="white" stroke-width="7"/>
</g>
<defs>
<clipPath id="clip0_404_1123">
<rect width="770" height="765" fill="white"/>
</clipPath>
</defs>
</svg>
