<svg width="98" height="35" viewBox="0 0 98 35" fill="none" xmlns="http://www.w3.org/2000/svg">
<path d="M4.49989 20.87H10.7046C12.0272 20.87 13.097 21.0645 13.9139 21.4535C14.7308 21.8295 15.3273 22.3676 15.7033 23.0678C16.0923 23.7551 16.2868 24.5655 16.2868 25.4991C16.2868 26.4328 16.0664 27.2497 15.6255 27.9499C15.1976 28.6371 14.5687 29.1688 13.7388 29.5448C12.9089 29.9209 11.8975 30.1089 10.7046 30.1089H0.804314L1.91299 22.6205L0.804314 15.5211H15.217V19.1972H3.89692L5.80306 16.9604L6.67833 22.5232L5.70581 28.8252L3.79967 26.5884H9.98489C10.3998 26.5884 10.724 26.4846 10.9574 26.2772C11.1908 26.0567 11.3075 25.752 11.3075 25.363C11.3075 24.974 11.1908 24.6757 10.9574 24.4683C10.724 24.2478 10.3998 24.1376 9.98489 24.1376H4.49989V20.87ZM20.7438 27.6581V23.6708H30.683V27.6581H20.7438ZM29.1464 15.5211L35.5456 30.1089H30.1967L25.1591 17.7384H26.4428L21.4052 30.1089H16.0563L22.4555 15.5211H29.1464ZM58.2849 25.6742L56.0287 27.9304V15.5211H61.0469V30.1089H36.6561V15.5211H41.6743V27.9304L39.418 25.6742H48.5986L46.3424 27.9304V15.5211H51.3606V27.9304L49.1043 25.6742H58.2849ZM63.3814 15.5211H68.3996V30.1089H63.3814V15.5211ZM74.6237 15.5211H79.6419V30.1089H74.6237V15.5211ZM66.2211 20.442H76.5882V24.8767H66.2211V20.442ZM93.3749 21.7647V25.2463H87.4814L87.462 25.1296C86.295 25.1296 85.2706 24.9416 84.3888 24.5655C83.5201 24.1765 82.8393 23.6254 82.3465 22.9122C81.8668 22.1991 81.6269 21.3627 81.6269 20.4031C81.6269 19.4177 81.8668 18.5618 82.3465 17.8357C82.8393 17.1095 83.5201 16.5455 84.3888 16.1435C85.2706 15.7286 86.295 15.5211 87.462 15.5211H96.8371V30.1089H91.8189V16.7854L94.0751 19.0416H88.24C87.7473 19.0416 87.3647 19.1583 87.0924 19.3917C86.8201 19.6251 86.684 19.9623 86.684 20.4031C86.684 20.844 86.8201 21.1812 87.0924 21.4146C87.3647 21.648 87.7473 21.7647 88.24 21.7647H93.3749ZM91.5077 23.2818L86.9368 30.1089H81.199L85.9643 23.2818H91.5077Z" fill="white"/>
<path d="M72.6151 8.21882V10.9137H70.9994V8.21882H68.4834V6.64631H70.9994V3.9823H72.6151V6.64631H75.1311V8.21882H72.6151Z" fill="#F1F1F1"/>
<path fill-rule="evenodd" clip-rule="evenodd" d="M51.9434 1.40088H56.8516V6.25311H51.9435V11.1053H47.0353V8.67919H42.127V11.1053H37.2188V6.25308H42.127H42.127H47.0353H47.0353H51.9434V1.40088ZM61.76 6.25308H56.8518V11.1053H61.76V6.25308Z" fill="white"/>
<path d="M82.0723 11.1208V3.08057H85.0843V5.97217H88.0134V3.08057H91.0984V5.97217H93.9582V3.08057H97.0652V11.1208H82.0723Z" fill="white"/>
</svg>
